<?xml version="1.0" standalone="no"?>
<!DOCTYPE svg PUBLIC "-//W3C//DTD SVG 20010904//EN"
 "http://www.w3.org/TR/2001/REC-SVG-20010904/DTD/svg10.dtd">
<svg version="1.0" xmlns="http://www.w3.org/2000/svg"
 width="220.000000pt" height="220.000000pt" viewBox="0 0 220.000000 220.000000"
 preserveAspectRatio="xMidYMid meet">
<metadata>
Created by potrace 1.14, written by Peter Selinger 2001-2017
</metadata>
<g transform="translate(0.000000,220.000000) scale(0.100000,-0.100000)"
fill="#000000" stroke="none">
<path d="M1423 1975 c-167 -38 -306 -180 -341 -348 -5 -27 -8 -80 -6 -119 l4
-70 -65 6 c-102 10 -226 39 -320 75 -11 4 -67 31 -125 59 -127 63 -217 129
-328 239 l-82 82 -17 -32 c-41 -81 -53 -209 -26 -302 23 -83 55 -137 116 -199
l58 -58 -43 5 c-24 3 -67 14 -95 25 -36 14 -53 16 -56 8 -8 -21 23 -140 50
-194 51 -102 142 -176 278 -227 17 -7 15 -9 -15 -16 -19 -4 -60 -6 -92 -4 -32
1 -58 -1 -58 -6 0 -6 12 -32 26 -60 50 -99 147 -181 255 -217 30 -10 60 -18
67 -18 6 -1 24 -2 39 -3 25 -1 25 -2 -16 -32 -83 -59 -243 -128 -334 -144 -18
-3 -45 -7 -62 -10 -16 -3 -73 -5 -125 -6 -106 0 -107 1 15 -60 96 -48 227 -94
315 -109 36 -7 81 -15 101 -19 39 -9 309 -6 349 3 14 3 51 11 83 16 293 54
599 261 771 522 85 129 166 314 191 437 20 92 32 192 34 263 2 80 3 84 33 108
51 40 152 147 172 180 l18 32 -28 -15 c-16 -8 -55 -22 -87 -31 -65 -19 -154
-31 -122 -17 47 21 137 133 165 206 9 23 8 24 -15 15 -14 -5 -35 -16 -47 -24
-26 -17 -173 -66 -197 -66 -9 0 -29 12 -46 26 -104 90 -260 129 -392 99z"/>
</g>
</svg>
